AmstelvarA2-Italic_XOFI3.ufo
<glyph name="zero" format="2">
  <advance width="821"/>
  <unicode hex="0030"/>
  <outline>
    <contour>
      <point x="66" y="746" type="qcurve" smooth="yes"/>
      <point x="131" y="1137"/>
      <point x="363" y="1519"/>
      <point x="525" y="1520" type="qcurve" smooth="yes"/>
      <point x="695" y="1521"/>
      <point x="805" y="1132"/>
      <point x="740" y="757" type="qcurve" smooth="yes"/>
      <point x="671" y="360"/>
      <point x="438" y="-29"/>
      <point x="259" y="-30" type="qcurve" smooth="yes"/>
      <point x="105" y="-31"/>
      <point x="6" y="387"/>
    </contour>
    <contour>
      <point x="77" y="772" type="qcurve" smooth="yes"/>
      <point x="24" y="466"/>
      <point x="137" y="81"/>
      <point x="284" y="81" type="qcurve" smooth="yes"/>
      <point x="443" y="81"/>
      <point x="676" y="428"/>
      <point x="731" y="746" type="qcurve" smooth="yes"/>
      <point x="780" y="1027"/>
      <point x="666" y="1400"/>
      <point x="517" y="1400" type="qcurve" smooth="yes"/>
      <point x="356" y="1400"/>
      <point x="127" y="1060"/>
    </contour>
  </outline>
</glyph>
<glyph name="one" format="2">
  <advance width="727"/>
  <unicode hex="0031"/>
  <outline>
    <contour>
      <point x="194" y="-1" type="line"/>
      <point x="241" y="51"/>
      <point x="311" y="169"/>
      <point x="329" y="276" type="qcurve" smooth="yes"/>
      <point x="460" y="1053" type="line"/>
      <point x="505" y="1353" type="line"/>
      <point x="76" y="1125" type="line"/>
      <point x="37" y="1232" type="line"/>
      <point x="629" y="1554" type="line"/>
      <point x="692" y="1509" type="line"/>
      <point x="612" y="1450"/>
      <point x="515" y="1334"/>
      <point x="501" y="1253" type="qcurve" smooth="yes"/>
      <point x="410" y="719" type="line"/>
      <point x="295" y="-3" type="line"/>
      <point x="265" y="-34" type="line"/>
    </contour>
  </outline>
</glyph>
<glyph name="six" format="2">
	<unicode hex="0036"/>
	<advance width="793"/>
	<outline>
		<contour>
			<point x="37" y="471" type="qcurve" smooth="yes"/>
			<point x="49" y="806"/>
			<point x="367" y="1403"/>
			<point x="701" y="1550" type="qcurve"/>
			<point x="731" y="1448" type="line"/>
			<point x="493" y="1358"/>
			<point x="55" y="789"/>
			<point x="44" y="463" type="qcurve" smooth="yes"/>
			<point x="39" y="286"/>
			<point x="167" y="84"/>
			<point x="323" y="83" type="qcurve" smooth="yes"/>
			<point x="472" y="83"/>
			<point x="681" y="304"/>
			<point x="687" y="519" type="qcurve" smooth="yes"/>
			<point x="690" y="633"/>
			<point x="549" y="772"/>
			<point x="446" y="772" type="qcurve" smooth="yes"/>
			<point x="393" y="772"/>
			<point x="294" y="742"/>
			<point x="253" y="715" type="qcurve"/>
			<point x="239" y="783" type="line"/>
			<point x="277" y="821"/>
			<point x="397" y="885"/>
			<point x="484" y="885" type="qcurve" smooth="yes"/>
			<point x="574" y="885"/>
			<point x="702" y="677"/>
			<point x="696" y="518" type="qcurve" smooth="yes"/>
			<point x="688" y="292"/>
			<point x="469" y="-28"/>
			<point x="297" y="-28" type="qcurve" smooth="yes"/>
			<point x="139" y="-27"/>
			<point x="29" y="256"/>
		</contour>
	</outline>
</glyph>
<glyph name="seven" format="2">
	<unicode hex="0037"/>
	<advance width="965"/>
	<outline>
		<contour>
			<point x="91" y="1239" type="line"/>
			<point x="198" y="1500" type="line"/>
			<point x="1049" y="1500" type="line"/>
			<point x="1066" y="1452" type="line"/>
			<point x="799" y="1071"/>
			<point x="369" y="337"/>
			<point x="193" y="-30" type="qcurve"/>
			<point x="187" y="-32" type="line"/>
			<point x="184" y="-27" type="line"/>
			<point x="359" y="362"/>
			<point x="710" y="1078"/>
			<point x="949" y="1479" type="qcurve"/>
			<point x="937" y="1493" type="line"/>
			<point x="377" y="1493" type="line"/>
			<point x="193" y="1239" type="line"/>
		</contour>
	</outline>
</glyph>
<glyph name="greater" format="2">
	<unicode hex="003E"/>
	<advance width="1024"/>
	<outline>
		<contour>
			<point x="867" y="636" type="qcurve"/>
			<point x="826" y="606"/>
			<point x="291" y="267"/>
			<point x="232" y="228" type="qcurve" smooth="yes"/>
			<point x="154" y="176"/>
			<point x="87" y="275"/>
			<point x="159" y="330" type="qcurve" smooth="yes"/>
			<point x="309" y="446"/>
			<point x="853" y="636"/>
			<point x="860" y="636" type="qcurve"/>
			<point x="853" y="636"/>
			<point x="368" y="844"/>
			<point x="267" y="956" type="qcurve" smooth="yes"/>
			<point x="216" y="1012"/>
			<point x="317" y="1106"/>
			<point x="378" y="1056" type="qcurve" smooth="yes"/>
			<point x="435" y="1009"/>
			<point x="829" y="668"/>
		</contour>
	</outline>
</glyph>
<glyph name="cent" format="2">
  <advance width="673"/>
  <unicode hex="00A2"/>
  <outline>
    <contour>
      <point x="217" y="-100" type="line"/>
      <point x="263" y="162" type="line"/>
      <point x="280" y="162" type="line"/>
      <point x="363" y="630" type="line"/>
      <point x="479" y="588" type="line"/>
      <point x="404" y="162" type="line"/>
      <point x="423" y="162" type="line"/>
      <point x="386" y="-50" type="line"/>
    </contour>
    <contour>
      <point x="459" y="1280" type="line"/>
      <point x="626" y="1319" type="line"/>
      <point x="580" y="1059" type="line"/>
      <point x="562" y="1059" type="line"/>
      <point x="479" y="588" type="line"/>
      <point x="363" y="630" type="line"/>
      <point x="438" y="1059" type="line"/>
      <point x="420" y="1059" type="line"/>
    </contour>
    <contour>
      <point x="130" y="600" type="qcurve" smooth="yes"/>
      <point x="188" y="835"/>
      <point x="486" y="1141"/>
      <point x="637" y="1141" type="qcurve" smooth="yes"/>
      <point x="649" y="1141"/>
      <point x="666" y="1078"/>
      <point x="666" y="960" type="qcurve" smooth="yes"/>
      <point x="666" y="883"/>
      <point x="665" y="751"/>
      <point x="662" y="750" type="qcurve"/>
      <point x="659" y="750" type="line"/>
      <point x="659" y="950" type="line" smooth="yes"/>
      <point x="659" y="975"/>
      <point x="595" y="1012"/>
      <point x="541" y="1012" type="qcurve" smooth="yes"/>
      <point x="404" y="1012"/>
      <point x="186" y="806"/>
      <point x="138" y="594" type="qcurve" smooth="yes"/>
      <point x="104" y="445"/>
      <point x="217" y="218"/>
      <point x="343" y="218" type="qcurve" smooth="yes"/>
      <point x="414" y="218"/>
      <point x="514" y="316"/>
      <point x="569" y="423" type="qcurve"/>
      <point x="627" y="359" type="line"/>
      <point x="627" y="330" type="line"/>
      <point x="581" y="228"/>
      <point x="437" y="89"/>
      <point x="345" y="91" type="qcurve" smooth="yes"/>
      <point x="223" y="94"/>
      <point x="74" y="373"/>
    </contour>
  </outline>
</glyph>
<glyph name="sterling" format="2">
	<unicode hex="00A3"/>
	<advance width="902"/>
	<outline>
		<contour>
			<point x="204" y="581" type="line"/>
			<point x="220" y="707" type="line"/>
			<point x="754" y="707" type="line"/>
			<point x="734" y="581" type="line"/>
		</contour>
		<contour>
			<point x="498" y="485" type="qcurve"/>
			<point x="496" y="336"/>
			<point x="323" y="-13"/>
			<point x="140" y="-13" type="qcurve" smooth="yes"/>
			<point x="43" y="-13"/>
			<point x="-83" y="107"/>
			<point x="-77" y="198" type="qcurve" smooth="yes"/>
			<point x="-70" y="301"/>
			<point x="67" y="381"/>
			<point x="143" y="381" type="qcurve" smooth="yes"/>
			<point x="213" y="381"/>
			<point x="345" y="277"/>
			<point x="404" y="222" type="qcurve" smooth="yes"/>
			<point x="462" y="168"/>
			<point x="616" y="32"/>
			<point x="667" y="32" type="qcurve" smooth="yes"/>
			<point x="726" y="32"/>
			<point x="833" y="168"/>
			<point x="875" y="238" type="qcurve"/>
			<point x="922" y="160" type="line"/>
			<point x="886" y="102"/>
			<point x="737" y="0"/>
			<point x="663" y="0" type="qcurve" smooth="yes"/>
			<point x="596" y="0"/>
			<point x="463" y="145"/>
			<point x="398" y="215" type="qcurve" smooth="yes"/>
			<point x="348" y="268"/>
			<point x="207" y="354"/>
			<point x="149" y="354" type="qcurve" smooth="yes"/>
			<point x="88" y="354"/>
			<point x="21" y="292"/>
			<point x="14" y="240" type="qcurve" smooth="yes"/>
			<point x="7" y="187"/>
			<point x="89" y="96"/>
			<point x="164" y="96" type="qcurve" smooth="yes"/>
			<point x="327" y="96"/>
			<point x="489" y="341"/>
			<point x="491" y="485" type="qcurve"/>
			<point x="489" y="631"/>
			<point x="400" y="779"/>
			<point x="364" y="840" type="qcurve" smooth="yes"/>
			<point x="322" y="911"/>
			<point x="273" y="1066"/>
			<point x="280" y="1156" type="qcurve" smooth="yes"/>
			<point x="292" y="1304"/>
			<point x="471" y="1501"/>
			<point x="625" y="1501" type="qcurve" smooth="yes"/>
			<point x="735" y="1501"/>
			<point x="905" y="1403"/>
			<point x="952" y="1342" type="qcurve"/>
			<point x="857" y="1236" type="line"/>
			<point x="808" y="1292"/>
			<point x="658" y="1375"/>
			<point x="551" y="1377" type="qcurve" smooth="yes"/>
			<point x="435" y="1378"/>
			<point x="294" y="1262"/>
			<point x="287" y="1156" type="qcurve" smooth="yes"/>
			<point x="281" y="1063"/>
			<point x="327" y="918"/>
			<point x="370" y="845" type="qcurve" smooth="yes"/>
			<point x="418" y="763"/>
			<point x="496" y="633"/>
		</contour>
	</outline>
</glyph>
<glyph name="twosuperior" format="2">
  <advance width="689"/>
  <unicode hex="00B2"/>
  <outline>
    <contour>
      <point x="112" y="661" type="qcurve"/>
      <point x="69" y="741" type="line"/>
      <point x="156" y="802" type="line"/>
      <point x="459" y="1042"/>
      <point x="669" y="1202"/>
      <point x="669" y="1300" type="qcurve" smooth="yes"/>
      <point x="669" y="1356"/>
      <point x="581" y="1416"/>
      <point x="500" y="1416" type="qcurve" smooth="yes"/>
      <point x="400" y="1416"/>
      <point x="305" y="1370"/>
      <point x="244" y="1307" type="qcurve"/>
      <point x="182" y="1386" type="line"/>
      <point x="244" y="1452"/>
      <point x="393" y="1532"/>
      <point x="478" y="1532" type="qcurve" smooth="yes"/>
      <point x="572" y="1532"/>
      <point x="678" y="1422"/>
      <point x="678" y="1313" type="qcurve" smooth="yes"/>
      <point x="678" y="1144"/>
      <point x="313" y="802"/>
      <point x="152" y="698" type="qcurve"/>
      <point x="159" y="685" type="line"/>
      <point x="257" y="711"/>
      <point x="550" y="687"/>
      <point x="670" y="651" type="qcurve"/>
      <point x="668" y="641" type="line"/>
      <point x="539" y="675"/>
      <point x="236" y="701"/>
    </contour>
  </outline>
</glyph>
<glyph name="threesuperior" format="2">
  <advance width="551"/>
  <unicode hex="00B3"/>
  <outline>
    <contour>
      <point x="36" y="756" type="qcurve" smooth="yes"/>
      <point x="36" y="802"/>
      <point x="97" y="868"/>
      <point x="138" y="883" type="qcurve"/>
      <point x="191" y="815" type="line"/>
      <point x="191" y="808" type="line"/>
      <point x="136" y="802"/>
      <point x="85" y="780"/>
      <point x="85" y="754" type="qcurve" smooth="yes"/>
      <point x="85" y="726"/>
      <point x="163" y="698"/>
      <point x="269" y="698" type="qcurve" smooth="yes"/>
      <point x="375" y="698"/>
      <point x="504" y="815"/>
      <point x="504" y="931" type="qcurve" smooth="yes"/>
      <point x="504" y="1025"/>
      <point x="372" y="1088"/>
      <point x="295" y="1081" type="qcurve" smooth="yes"/>
      <point x="210" y="1073" type="line"/>
      <point x="223" y="1167" type="line"/>
      <point x="308" y="1176" type="line" smooth="yes"/>
      <point x="388" y="1184"/>
      <point x="526" y="1273"/>
      <point x="526" y="1329" type="qcurve" smooth="yes"/>
      <point x="526" y="1376"/>
      <point x="470" y="1419"/>
      <point x="423" y="1419" type="qcurve" smooth="yes"/>
      <point x="363" y="1419"/>
      <point x="269" y="1375"/>
      <point x="230" y="1339" type="qcurve"/>
      <point x="182" y="1411" type="line"/>
      <point x="231" y="1474"/>
      <point x="331" y="1532"/>
      <point x="389" y="1532" type="qcurve" smooth="yes"/>
      <point x="454" y="1532"/>
      <point x="537" y="1444"/>
      <point x="537" y="1368" type="qcurve" smooth="yes"/>
      <point x="537" y="1273"/>
      <point x="421" y="1175"/>
      <point x="335" y="1153" type="qcurve"/>
      <point x="334" y="1149" type="line"/>
      <point x="414" y="1134"/>
      <point x="511" y="1012"/>
      <point x="511" y="911" type="qcurve" smooth="yes"/>
      <point x="511" y="785"/>
      <point x="349" y="609"/>
      <point x="226" y="609" type="qcurve" smooth="yes"/>
      <point x="146" y="609"/>
      <point x="36" y="692"/>
    </contour>
  </outline>
</glyph>
<glyph name="onesuperior" format="2">
  <advance width="512"/>
  <unicode hex="00B9"/>
  <outline>
    <contour>
      <point x="204" y="655" type="line"/>
      <point x="239" y="689"/>
      <point x="294" y="882"/>
      <point x="315" y="983" type="qcurve" smooth="yes"/>
      <point x="362" y="1209" type="line"/>
      <point x="396" y="1356" type="line"/>
      <point x="126" y="1145" type="line"/>
      <point x="70" y="1254" type="line"/>
      <point x="495" y="1539" type="line"/>
      <point x="512" y="1528" type="line"/>
      <point x="479" y="1487"/>
      <point x="407" y="1380"/>
      <point x="404" y="1366" type="qcurve" smooth="yes"/>
      <point x="335" y="1047" type="line"/>
      <point x="267" y="657" type="line"/>
      <point x="243" y="640" type="line"/>
    </contour>
  </outline>
</glyph>
<glyph name="figuredash" format="2">
  <advance width="1000"/>
  <unicode hex="2012"/>
  <outline>
    <contour>
      <point x="-36" y="562" type="line"/>
      <point x="-36" y="700" type="line"/>
      <point x="464" y="702" type="line"/>
      <point x="964" y="700" type="line"/>
      <point x="964" y="562" type="line"/>
      <point x="464" y="556" type="line"/>
    </contour>
  </outline>
</glyph>
<glyph name="foursuperior" format="2">
	<unicode hex="2074"/>
	<advance width="763"/>
	<outline>
		<contour>
			<point x="48" y="912" type="line"/>
			<point x="59" y="995" type="line"/>
			<point x="619" y="1533" type="line"/>
			<point x="654" y="1498" type="line"/>
			<point x="665" y="1474" type="line"/>
			<point x="553" y="964" type="line"/>
			<point x="520" y="779" type="line"/>
			<point x="541" y="651" type="line"/>
			<point x="520" y="644" type="line"/>
			<point x="482" y="690" type="line"/>
			<point x="549" y="978" type="line"/>
			<point x="651" y="1438" type="line"/>
			<point x="193" y="1008" type="line"/>
			<point x="196" y="1002" type="line"/>
			<point x="549" y="996" type="line"/>
			<point x="784" y="996" type="line"/>
			<point x="769" y="899" type="line"/>
			<point x="532" y="903" type="line"/>
		</contour>
	</outline>
</glyph>
<glyph name="lira" format="2">
  <advance width="1072"/>
  <unicode hex="20A4"/>
  <outline>
    <contour>
      <point x="176" y="-13" type="qcurve" smooth="yes"/>
      <point x="49" y="-13"/>
      <point x="-83" y="107"/>
      <point x="-77" y="198" type="qcurve" smooth="yes"/>
      <point x="-70" y="301"/>
      <point x="93" y="360"/>
      <point x="202" y="360" type="qcurve" smooth="yes"/>
      <point x="289" y="360"/>
      <point x="413" y="291"/>
      <point x="477" y="230" type="qcurve" smooth="yes"/>
      <point x="535" y="175"/>
      <point x="736" y="21"/>
      <point x="796" y="21" type="qcurve" smooth="yes"/>
      <point x="866" y="21"/>
      <point x="1001" y="187"/>
      <point x="1065" y="238" type="qcurve"/>
      <point x="1112" y="160" type="line"/>
      <point x="1069" y="102"/>
      <point x="881" y="0"/>
      <point x="792" y="0" type="qcurve" smooth="yes"/>
      <point x="712" y="0"/>
      <point x="534" y="152"/>
      <point x="457" y="221" type="qcurve" smooth="yes"/>
      <point x="397" y="274"/>
      <point x="250" y="340"/>
      <point x="187" y="340" type="qcurve" smooth="yes"/>
      <point x="135" y="340"/>
      <point x="60" y="276"/>
      <point x="51" y="233" type="qcurve" smooth="yes"/>
      <point x="40" y="180"/>
      <point x="107" y="86"/>
      <point x="164" y="86" type="qcurve" smooth="yes"/>
      <point x="327" y="86"/>
      <point x="628" y="345"/>
      <point x="628" y="511" type="qcurve" smooth="yes"/>
      <point x="628" y="614"/>
      <point x="541" y="742"/>
      <point x="487" y="818" type="qcurve" smooth="yes"/>
      <point x="439" y="886"/>
      <point x="341" y="1060"/>
      <point x="351" y="1166" type="qcurve" smooth="yes"/>
      <point x="364" y="1304"/>
      <point x="518" y="1501"/>
      <point x="711" y="1501" type="qcurve" smooth="yes"/>
      <point x="850" y="1501"/>
      <point x="1063" y="1403"/>
      <point x="1122" y="1342" type="qcurve"/>
      <point x="1027" y="1236" type="line"/>
      <point x="978" y="1292"/>
      <point x="828" y="1375"/>
      <point x="721" y="1377" type="qcurve" smooth="yes"/>
      <point x="605" y="1378"/>
      <point x="367" y="1272"/>
      <point x="359" y="1166" type="qcurve" smooth="yes"/>
      <point x="351" y="1055"/>
      <point x="445" y="890"/>
      <point x="493" y="823" type="qcurve" smooth="yes"/>
      <point x="549" y="745"/>
      <point x="636" y="613"/>
      <point x="636" y="511" type="qcurve" smooth="yes"/>
      <point x="636" y="336"/>
      <point x="359" y="-13"/>
    </contour>
    <contour>
      <point x="208" y="519" type="line"/>
      <point x="224" y="639" type="line"/>
      <point x="928" y="639" type="line"/>
      <point x="908" y="519" type="line"/>
    </contour>
    <contour>
      <point x="245" y="762" type="line"/>
      <point x="261" y="882" type="line"/>
      <point x="965" y="882" type="line"/>
      <point x="945" y="762" type="line"/>
    </contour>
  </outline>
</glyph>
<glyph name="naira" format="2">
	<unicode hex="20A6"/>
	<advance width="1425"/>
	<outline>
		<contour>
			<point x="1321" y="535" type="line"/>
			<point x="1058" y="535" type="line"/>
			<point x="1063" y="559" type="line"/>
			<point x="823" y="559" type="line"/>
			<point x="790" y="664" type="line"/>
			<point x="1081" y="664" type="line"/>
			<point x="1085" y="682" type="line"/>
			<point x="1361" y="682" type="line"/>
		</contour>
		<contour>
			<point x="124" y="536" type="line"/>
			<point x="145" y="682" type="line"/>
			<point x="388" y="682" type="line"/>
			<point x="384" y="664" type="line"/>
			<point x="790" y="664" type="line"/>
			<point x="826" y="557" type="line"/>
			<point x="363" y="557" type="line"/>
			<point x="360" y="536" type="line"/>
		</contour>
		<contour>
			<point x="1371" y="886" type="line"/>
			<point x="1122" y="886" type="line"/>
			<point x="1125" y="900" type="line"/>
			<point x="714" y="900" type="line"/>
			<point x="674" y="1013" type="line"/>
			<point x="1146" y="1013" type="line"/>
			<point x="1149" y="1034" type="line"/>
			<point x="1411" y="1034" type="line"/>
		</contour>
		<contour>
			<point x="184" y="886" type="line"/>
			<point x="205" y="1034" type="line"/>
			<point x="454" y="1034" type="line"/>
			<point x="449" y="1012" type="line"/>
			<point x="676" y="1012" type="line"/>
			<point x="714" y="900" type="line"/>
			<point x="429" y="900" type="line"/>
			<point x="426" y="886" type="line"/>
		</contour>
		<contour>
			<point x="20" y="0" type="line"/>
			<point x="29" y="100" type="line"/>
			<point x="225" y="125" type="line"/>
			<point x="348" y="754" type="line"/>
			<point x="462" y="1362" type="line"/>
			<point x="279" y="1386" type="line"/>
			<point x="292" y="1500" type="line"/>
			<point x="515" y="1500" type="line"/>
			<point x="740" y="820" type="line"/>
			<point x="939" y="184" type="line"/>
			<point x="1050" y="754" type="line"/>
			<point x="1165" y="1362" type="line"/>
			<point x="964" y="1386" type="line"/>
			<point x="980" y="1500" type="line"/>
			<point x="1484" y="1500" type="line"/>
			<point x="1468" y="1386" type="line"/>
			<point x="1274" y="1362" type="line"/>
			<point x="1156" y="754" type="line"/>
			<point x="1005" y="0" type="line"/>
			<point x="987" y="0" type="line"/>
			<point x="755" y="748" type="line"/>
			<point x="563" y="1328" type="line"/>
			<point x="453" y="754" type="line"/>
			<point x="334" y="125" type="line"/>
			<point x="525" y="100" type="line"/>
			<point x="516" y="0" type="line"/>
		</contour>
	</outline>
</glyph>
<glyph name="won" format="2">
	<unicode hex="20A9"/>
	<advance width="1642"/>
	<outline>
		<contour>
			<point x="1438" y="535" type="line"/>
			<point x="1118" y="535" type="line"/>
			<point x="1118" y="561" type="line"/>
			<point x="864" y="561" type="line"/>
			<point x="864" y="663" type="line"/>
			<point x="1195" y="663" type="line"/>
			<point x="1195" y="682" type="line"/>
			<point x="1497" y="682" type="line"/>
		</contour>
		<contour>
			<point x="1587" y="886" type="line"/>
			<point x="1315" y="886" type="line"/>
			<point x="1315" y="908" type="line"/>
			<point x="859" y="908" type="line"/>
			<point x="859" y="1015" type="line"/>
			<point x="1375" y="1015" type="line"/>
			<point x="1375" y="1034" type="line"/>
			<point x="1655" y="1034" type="line"/>
		</contour>
		<contour>
			<point x="207" y="535" type="line"/>
			<point x="188" y="682" type="line"/>
			<point x="368" y="682" type="line"/>
			<point x="369" y="663" type="line"/>
			<point x="864" y="663" type="line"/>
			<point x="864" y="561" type="line"/>
			<point x="372" y="561" type="line"/>
			<point x="373" y="535" type="line"/>
		</contour>
		<contour>
			<point x="138" y="886" type="line"/>
			<point x="120" y="1034" type="line"/>
			<point x="354" y="1034" type="line"/>
			<point x="354" y="1015" type="line"/>
			<point x="859" y="1015" type="line"/>
			<point x="859" y="908" type="line"/>
			<point x="359" y="908" type="line"/>
			<point x="359" y="886" type="line"/>
		</contour>
		<contour>
			<point x="172" y="1386" type="line"/>
			<point x="196" y="1500" type="line"/>
			<point x="525" y="1500" type="line"/>
			<point x="501" y="1386" type="line"/>
			<point x="343" y="1366" type="line"/>
			<point x="368" y="803" type="line"/>
			<point x="394" y="222" type="line"/>
			<point x="406" y="222" type="line"/>
			<point x="617" y="637" type="line"/>
			<point x="856" y="1098" type="line"/>
			<point x="859" y="929" type="line"/>
			<point x="698" y="599" type="line"/>
			<point x="389" y="-8" type="line"/>
			<point x="385" y="-8" type="line"/>
			<point x="362" y="740" type="line"/>
			<point x="335" y="1366" type="line"/>
		</contour>
		<contour>
			<point x="704" y="1394" type="line"/>
			<point x="725" y="1500" type="line"/>
			<point x="1031" y="1500" type="line"/>
			<point x="1010" y="1386" type="line"/>
			<point x="857" y="1373" type="line"/>
			<point x="865" y="800" type="line"/>
			<point x="873" y="220" type="line"/>
			<point x="881" y="221" type="line"/>
			<point x="1201" y="803" type="line"/>
			<point x="1484" y="1372" type="line"/>
			<point x="1291" y="1386" type="line"/>
			<point x="1304" y="1500" type="line"/>
			<point x="1791" y="1500" type="line"/>
			<point x="1778" y="1386" type="line"/>
			<point x="1620" y="1367" type="line"/>
			<point x="1298" y="760" type="line"/>
			<point x="869" y="-8" type="line"/>
			<point x="864" y="-8" type="line"/>
			<point x="858" y="734" type="line"/>
			<point x="846" y="1373" type="line"/>
		</contour>
	</outline>
</glyph>
<glyph name="dong" format="2">
	<unicode hex="20AB"/>
	<advance width="827"/>
	<outline>
		<contour>
			<point x="5" y="-266" type="line"/>
			<point x="25" y="-124" type="line"/>
			<point x="319" y="-128" type="line"/>
			<point x="617" y="-124" type="line"/>
			<point x="597" y="-266" type="line"/>
			<point x="300" y="-262" type="line"/>
		</contour>
		<contour>
			<point x="369" y="1122" type="line"/>
			<point x="400" y="1247" type="line"/>
			<point x="748" y="1244" type="line"/>
			<point x="892" y="1247" type="line"/>
			<point x="862" y="1122" type="line"/>
			<point x="717" y="1126" type="line"/>
		</contour>
		<contour>
			<point x="88" y="300" type="qcurve" smooth="yes"/>
			<point x="88" y="548"/>
			<point x="370" y="987"/>
			<point x="653" y="987" type="qcurve" smooth="yes"/>
			<point x="697" y="987" type="line"/>
			<point x="759" y="1336" type="line"/>
			<point x="655" y="1428" type="line"/>
			<point x="683" y="1500" type="line"/>
			<point x="739" y="1512" type="line"/>
			<point x="798" y="1464" type="line"/>
			<point x="604" y="469" type="line"/>
			<point x="555" y="133" type="line"/>
			<point x="640" y="133" type="line"/>
			<point x="640" y="44" type="line"/>
			<point x="554" y="-16" type="line"/>
			<point x="517" y="65" type="line"/>
			<point x="524" y="171" type="line"/>
			<point x="459" y="96"/>
			<point x="229" y="-10"/>
			<point x="188" y="-10" type="qcurve" smooth="yes"/>
			<point x="154" y="-10"/>
			<point x="88" y="59"/>
		</contour>
		<contour>
			<point x="96" y="300" type="qcurve" smooth="yes"/>
			<point x="96" y="225"/>
			<point x="156" y="127"/>
			<point x="225" y="127" type="qcurve" smooth="yes"/>
			<point x="343" y="127"/>
			<point x="567" y="313"/>
			<point x="600" y="491" type="qcurve" smooth="yes"/>
			<point x="654" y="771" type="line"/>
			<point x="651" y="811"/>
			<point x="585" y="837"/>
			<point x="544" y="837" type="qcurve" smooth="yes"/>
			<point x="345" y="837"/>
			<point x="96" y="519"/>
		</contour>
	</outline>
</glyph>
<glyph name="Euro" format="2">
	<unicode hex="20AC"/>
	<advance width="934"/>
	<outline>
		<contour>
			<point x="110" y="858" type="line"/>
			<point x="141" y="984" type="line"/>
			<point x="796" y="984" type="line"/>
			<point x="769" y="858" type="line"/>
		</contour>
		<contour>
			<point x="73" y="541" type="line"/>
			<point x="99" y="667" type="line"/>
			<point x="788" y="667" type="line"/>
			<point x="758" y="541" type="line"/>
		</contour>
		<contour>
			<point x="907" y="1211" type="line"/>
			<point x="878" y="1285"/>
			<point x="775" y="1370"/>
			<point x="696" y="1370" type="qcurve" smooth="yes"/>
			<point x="535" y="1370"/>
			<point x="310" y="1060"/>
			<point x="257" y="755" type="qcurve" smooth="yes"/>
			<point x="210" y="481"/>
			<point x="331" y="119"/>
			<point x="478" y="119" type="qcurve" smooth="yes"/>
			<point x="558" y="119"/>
			<point x="681" y="180"/>
			<point x="756" y="257" type="qcurve"/>
			<point x="835" y="171" type="line"/>
			<point x="772" y="81"/>
			<point x="620" y="-25"/>
			<point x="538" y="-25" type="qcurve" smooth="yes"/>
			<point x="357" y="-25"/>
			<point x="183" y="399"/>
			<point x="249" y="766" type="qcurve" smooth="yes"/>
			<point x="314" y="1128"/>
			<point x="590" y="1520"/>
			<point x="774" y="1520" type="qcurve" smooth="yes"/>
			<point x="871" y="1520"/>
			<point x="992" y="1386"/>
			<point x="1018" y="1278" type="qcurve"/>
		</contour>
	</outline>
</glyph>
<glyph name="kip" format="2">
  <advance width="1181"/>
  <unicode hex="20AD"/>
  <outline>
    <contour>
      <point x="1042" y="755" type="line"/>
      <point x="513" y="755" type="line"/>
      <point x="494" y="781" type="line"/>
      <point x="374" y="781" type="line"/>
      <point x="443" y="843" type="line"/>
      <point x="473" y="843" type="line"/>
      <point x="515" y="892" type="line"/>
      <point x="1065" y="892" type="line"/>
    </contour>
    <contour>
      <point x="135" y="755" type="line"/>
      <point x="146" y="891" type="line"/>
      <point x="341" y="891" type="line"/>
      <point x="331" y="843" type="line"/>
      <point x="443" y="843" type="line"/>
      <point x="374" y="781" type="line"/>
      <point x="321" y="781" type="line"/>
      <point x="316" y="755" type="line"/>
    </contour>
    <contour>
      <point x="-16" y="0" type="line"/>
      <point x="-7" y="100" type="line"/>
      <point x="189" y="125" type="line"/>
      <point x="312" y="754" type="line"/>
      <point x="426" y="1362" type="line"/>
      <point x="233" y="1386" type="line"/>
      <point x="246" y="1500" type="line"/>
      <point x="628" y="1500" type="line"/>
      <point x="615" y="1386" type="line"/>
      <point x="433" y="1362" type="line"/>
      <point x="319" y="754" type="line"/>
      <point x="198" y="125" type="line"/>
      <point x="382" y="100" type="line"/>
      <point x="373" y="0" type="line"/>
    </contour>
    <contour>
      <point x="298" y="672" type="line"/>
      <point x="326" y="824" type="line"/>
      <point x="865" y="1348" type="line"/>
      <point x="761" y="1386" type="line"/>
      <point x="774" y="1500" type="line"/>
      <point x="1194" y="1500" type="line"/>
      <point x="1181" y="1386" type="line"/>
      <point x="1020" y="1348" type="line"/>
    </contour>
    <contour>
      <point x="460" y="829" type="line"/>
      <point x="467" y="833" type="line"/>
      <point x="917" y="125" type="line"/>
      <point x="1051" y="100" type="line"/>
      <point x="1042" y="0" type="line"/>
      <point x="757" y="0" type="line"/>
      <point x="766" y="100" type="line"/>
      <point x="907" y="125" type="line"/>
    </contour>
  </outline>
</glyph>
<glyph name="peso" format="2">
	<unicode hex="20B1"/>
	<advance width="1040"/>
	<outline>
		<contour>
			<point x="1004" y="764" type="line"/>
			<point x="789" y="764" type="line"/>
			<point x="794" y="778" type="line"/>
			<point x="546" y="778" type="line"/>
			<point x="573" y="890" type="line"/>
			<point x="849" y="890" type="line"/>
			<point x="855" y="905" type="line"/>
			<point x="1034" y="905" type="line"/>
		</contour>
		<contour>
			<point x="114" y="765" type="line"/>
			<point x="135" y="904" type="line"/>
			<point x="314" y="904" type="line"/>
			<point x="311" y="890" type="line"/>
			<point x="573" y="890" type="line"/>
			<point x="546" y="779" type="line"/>
			<point x="292" y="779" type="line"/>
			<point x="289" y="765" type="line"/>
		</contour>
		<contour>
			<point x="1035" y="1069" type="line"/>
			<point x="891" y="1069" type="line"/>
			<point x="891" y="1083" type="line"/>
			<point x="613" y="1083" type="line"/>
			<point x="635" y="1195" type="line"/>
			<point x="882" y="1195" type="line"/>
			<point x="880" y="1211" type="line"/>
			<point x="1065" y="1211" type="line"/>
		</contour>
		<contour>
			<point x="144" y="1069" type="line"/>
			<point x="165" y="1211" type="line"/>
			<point x="369" y="1211" type="line"/>
			<point x="366" y="1195" type="line"/>
			<point x="635" y="1195" type="line"/>
			<point x="613" y="1084" type="line"/>
			<point x="346" y="1084" type="line"/>
			<point x="344" y="1069" type="line"/>
		</contour>
		<contour>
			<point x="-41" y="0" type="line"/>
			<point x="-32" y="100" type="line"/>
			<point x="165" y="127" type="line"/>
			<point x="283" y="754" type="line"/>
			<point x="392" y="1362" type="line"/>
			<point x="209" y="1386" type="line"/>
			<point x="222" y="1500" type="line"/>
			<point x="591" y="1500" type="line" smooth="yes"/>
			<point x="722" y="1500"/>
			<point x="929" y="1215"/>
			<point x="887" y="1003" type="qcurve" smooth="yes"/>
			<point x="847" y="802"/>
			<point x="655" y="499"/>
			<point x="486" y="499" type="qcurve" smooth="yes"/>
			<point x="387" y="499"/>
			<point x="288" y="521"/>
			<point x="246" y="532" type="qcurve"/>
			<point x="266" y="638" type="line"/>
			<point x="316" y="623"/>
			<point x="419" y="607"/>
			<point x="472" y="607" type="qcurve" smooth="yes"/>
			<point x="610" y="607"/>
			<point x="847" y="839"/>
			<point x="880" y="1022" type="qcurve" smooth="yes"/>
			<point x="908" y="1177"/>
			<point x="756" y="1382"/>
			<point x="611" y="1382" type="qcurve" smooth="yes"/>
			<point x="426" y="1382" type="line"/>
			<point x="400" y="1360" type="line"/>
			<point x="293" y="764" type="line"/>
			<point x="173" y="122" type="line"/>
			<point x="373" y="100" type="line"/>
			<point x="364" y="0" type="line"/>
		</contour>
	</outline>
</glyph>
<glyph name="guarani" format="2">
	<unicode hex="20B2"/>
	<advance width="1376"/>
	<outline>
		<contour>
			<point x="452" y="-122" type="line"/>
			<point x="509" y="86" type="line"/>
			<point x="527" y="81" type="line"/>
			<point x="727" y="842" type="line"/>
			<point x="841" y="803" type="line"/>
			<point x="648" y="54" type="line"/>
			<point x="668" y="50" type="line"/>
			<point x="625" y="-109" type="line"/>
		</contour>
		<contour>
			<point x="911" y="1646" type="line"/>
			<point x="1082" y="1646" type="line"/>
			<point x="1022" y="1424" type="line"/>
			<point x="1001" y="1428" type="line"/>
			<point x="841" y="803" type="line"/>
			<point x="727" y="842" type="line"/>
			<point x="881" y="1455" type="line"/>
			<point x="861" y="1460" type="line"/>
		</contour>
		<contour>
			<point x="311" y="834" type="qcurve" smooth="yes"/>
			<point x="398" y="1160"/>
			<point x="742" y="1537"/>
			<point x="989" y="1504" type="qcurve" smooth="yes"/>
			<point x="1159" y="1481"/>
			<point x="1344" y="1266"/>
			<point x="1316" y="1046" type="qcurve"/>
			<point x="1188" y="1046" type="line"/>
			<point x="1193" y="1216"/>
			<point x="1091" y="1372"/>
			<point x="941" y="1398" type="qcurve" smooth="yes"/>
			<point x="721" y="1436"/>
			<point x="402" y="1151"/>
			<point x="325" y="842" type="qcurve" smooth="yes"/>
			<point x="252" y="552"/>
			<point x="400" y="175"/>
			<point x="574" y="151" type="qcurve" smooth="yes"/>
			<point x="708" y="133"/>
			<point x="1012" y="174"/>
			<point x="1112" y="243" type="qcurve"/>
			<point x="1183" y="606" type="line"/>
			<point x="1034" y="631" type="line"/>
			<point x="1056" y="732" type="line"/>
			<point x="1216" y="732" type="line"/>
			<point x="1109" y="182" type="line"/>
			<point x="1094" y="152" type="line"/>
			<point x="974" y="92"/>
			<point x="671" y="-6"/>
			<point x="525" y="14" type="qcurve" smooth="yes"/>
			<point x="308" y="44"/>
			<point x="226" y="518"/>
		</contour>
	</outline>
</glyph>
<glyph name="hryvnia" format="2">
  <advance width="1056"/>
  <unicode hex="20B4"/>
  <outline>
    <contour>
      <point x="54" y="667" type="line"/>
      <point x="969" y="667" type="line"/>
      <point x="932" y="531" type="line"/>
      <point x="21" y="531" type="line"/>
    </contour>
    <contour>
      <point x="111" y="994" type="line"/>
      <point x="1034" y="994" type="line"/>
      <point x="1007" y="858" type="line"/>
      <point x="81" y="858" type="line"/>
    </contour>
    <contour>
      <point x="939" y="272" type="line"/>
      <point x="846" y="141"/>
      <point x="577" y="1"/>
      <point x="405" y="1" type="qcurve" smooth="yes"/>
      <point x="277" y="1"/>
      <point x="91" y="184"/>
      <point x="91" y="322" type="qcurve" smooth="yes"/>
      <point x="91" y="382"/>
      <point x="117" y="505"/>
      <point x="155" y="559" type="qcurve"/>
      <point x="187" y="591" type="line"/>
      <point x="252" y="654"/>
      <point x="402" y="731"/>
      <point x="528" y="785" type="qcurve" smooth="yes"/>
      <point x="630" y="829"/>
      <point x="770" y="901"/>
      <point x="806" y="934" type="qcurve"/>
      <point x="833" y="959" type="line"/>
      <point x="879" y="1006"/>
      <point x="943" y="1128"/>
      <point x="943" y="1183" type="qcurve" smooth="yes"/>
      <point x="943" y="1264"/>
      <point x="798" y="1371"/>
      <point x="671" y="1371" type="qcurve" smooth="yes"/>
      <point x="566" y="1371"/>
      <point x="406" y="1315"/>
      <point x="329" y="1267" type="qcurve"/>
      <point x="274" y="1373" type="line"/>
      <point x="363" y="1434"/>
      <point x="562" y="1501"/>
      <point x="680" y="1501" type="qcurve" smooth="yes"/>
      <point x="838" y="1501"/>
      <point x="955" y="1329"/>
      <point x="955" y="1206" type="qcurve" smooth="yes"/>
      <point x="955" y="1130"/>
      <point x="886" y="1001"/>
      <point x="842" y="958" type="qcurve"/>
      <point x="810" y="926" type="line"/>
      <point x="759" y="883"/>
      <point x="667" y="832"/>
      <point x="531" y="775" type="qcurve" smooth="yes"/>
      <point x="440" y="737"/>
      <point x="243" y="630"/>
      <point x="192" y="582" type="qcurve"/>
      <point x="163" y="554" type="line"/>
      <point x="134" y="507"/>
      <point x="101" y="399"/>
      <point x="101" y="350" type="qcurve" smooth="yes"/>
      <point x="101" y="246"/>
      <point x="216" y="122"/>
      <point x="408" y="122" type="qcurve" smooth="yes"/>
      <point x="553" y="122"/>
      <point x="763" y="247"/>
      <point x="837" y="345" type="qcurve"/>
    </contour>
  </outline>
</glyph>
<glyph name="liraTurkish" format="2">
  <advance width="1176"/>
  <unicode hex="20BA"/>
  <outline>
    <contour>
      <point x="226" y="527" type="line"/>
      <point x="190" y="650" type="line"/>
      <point x="461" y="753" type="line"/>
      <point x="461" y="749" type="line"/>
      <point x="756" y="868" type="line"/>
      <point x="741" y="721" type="line"/>
      <point x="435" y="613" type="line"/>
      <point x="435" y="609" type="line"/>
    </contour>
    <contour>
      <point x="231" y="851" type="line"/>
      <point x="195" y="977" type="line"/>
      <point x="528" y="1097" type="line"/>
      <point x="528" y="1094" type="line"/>
      <point x="808" y="1198" type="line"/>
      <point x="789" y="1044" type="line"/>
      <point x="500" y="954" type="line"/>
      <point x="500" y="949" type="line"/>
    </contour>
    <contour>
      <point x="355" y="159" type="line"/>
      <point x="395" y="132" type="line"/>
      <point x="553" y="153"/>
      <point x="934" y="369"/>
      <point x="983" y="564" type="qcurve" smooth="yes"/>
      <point x="1032" y="758" type="line"/>
      <point x="1154" y="758" type="line"/>
      <point x="1103" y="400" type="line"/>
      <point x="990" y="246"/>
      <point x="588" y="48"/>
      <point x="351" y="-8" type="qcurve"/>
      <point x="329" y="-8" type="line"/>
      <point x="292" y="47" type="line"/>
      <point x="333" y="132" type="line"/>
      <point x="460" y="754" type="line"/>
      <point x="574" y="1352" type="line"/>
      <point x="373" y="1386" type="line"/>
      <point x="386" y="1500" type="line"/>
      <point x="805" y="1500" type="line"/>
      <point x="792" y="1386" type="line"/>
      <point x="585" y="1352" type="line"/>
      <point x="467" y="754" type="line"/>
    </contour>
  </outline>
</glyph>
<glyph name="ruble" format="2">
  <advance width="853"/>
  <unicode hex="20BD"/>
  <outline>
    <contour>
      <point x="26" y="349" type="line"/>
      <point x="52" y="445" type="line"/>
      <point x="728" y="455" type="line"/>
      <point x="697" y="319" type="line"/>
    </contour>
    <contour>
      <point x="-11" y="0" type="line"/>
      <point x="-12" y="100" type="line"/>
      <point x="185" y="127" type="line"/>
      <point x="307" y="754" type="line"/>
      <point x="412" y="1362" type="line"/>
      <point x="229" y="1386" type="line"/>
      <point x="242" y="1500" type="line"/>
      <point x="662" y="1500" type="line" smooth="yes"/>
      <point x="819" y="1500"/>
      <point x="915" y="1237"/>
      <point x="873" y="1025" type="qcurve" smooth="yes"/>
      <point x="833" y="824"/>
      <point x="636" y="589"/>
      <point x="528" y="589" type="qcurve" smooth="yes"/>
      <point x="416" y="589"/>
      <point x="162" y="644"/>
      <point x="105" y="660" type="qcurve"/>
      <point x="134" y="761" type="line"/>
      <point x="198" y="743"/>
      <point x="420" y="697"/>
      <point x="511" y="697" type="qcurve" smooth="yes"/>
      <point x="638" y="697"/>
      <point x="835" y="877"/>
      <point x="867" y="1046" type="qcurve" smooth="yes"/>
      <point x="898" y="1201"/>
      <point x="777" y="1382"/>
      <point x="632" y="1382" type="qcurve" smooth="yes"/>
      <point x="447" y="1382" type="line"/>
      <point x="421" y="1360" type="line"/>
      <point x="317" y="764" type="line"/>
      <point x="196" y="122" type="line"/>
      <point x="396" y="100" type="line"/>
      <point x="387" y="0" type="line"/>
    </contour>
  </outline>
</glyph>
<glyph name="numero" format="2">
	<unicode hex="2116"/>
	<advance width="1853"/>
	<outline>
		<contour>
			<point x="1225" y="317" type="qcurve" smooth="yes"/>
			<point x="1232" y="381"/>
			<point x="1232" y="382"/>
			<point x="1460" y="377" type="qcurve" smooth="yes"/>
			<point x="1695" y="373"/>
			<point x="1696" y="372"/>
			<point x="1686" y="302" type="qcurve" smooth="yes"/>
			<point x="1678" y="244"/>
			<point x="1677" y="243"/>
			<point x="1448" y="245" type="qcurve" smooth="yes"/>
			<point x="1218" y="247"/>
			<point x="1217" y="248"/>
		</contour>
		<contour>
			<point x="-60" y="0" type="line"/>
			<point x="-51" y="100" type="line"/>
			<point x="145" y="125" type="line"/>
			<point x="268" y="754" type="line"/>
			<point x="382" y="1362" type="line"/>
			<point x="199" y="1386" type="line"/>
			<point x="212" y="1500" type="line"/>
			<point x="435" y="1500" type="line"/>
			<point x="661" y="820" type="line"/>
			<point x="863" y="210" type="line"/>
			<point x="949" y="754" type="line"/>
			<point x="1064" y="1362" type="line"/>
			<point x="863" y="1386" type="line"/>
			<point x="879" y="1500" type="line"/>
			<point x="1383" y="1500" type="line"/>
			<point x="1367" y="1386" type="line"/>
			<point x="1173" y="1362" type="line"/>
			<point x="1055" y="754" type="line"/>
			<point x="924" y="0" type="line"/>
			<point x="913" y="0" type="line"/>
			<point x="675" y="748" type="line"/>
			<point x="483" y="1328" type="line"/>
			<point x="373" y="754" type="line"/>
			<point x="254" y="125" type="line"/>
			<point x="445" y="100" type="line"/>
			<point x="436" y="0" type="line"/>
		</contour>
		<contour>
			<point x="1309" y="1026" type="qcurve" smooth="yes"/>
			<point x="1350" y="1240"/>
			<point x="1539" y="1521"/>
			<point x="1659" y="1510" type="qcurve" smooth="yes"/>
			<point x="1779" y="1499"/>
			<point x="1853" y="1197"/>
			<point x="1809" y="969" type="qcurve" smooth="yes"/>
			<point x="1769" y="755"/>
			<point x="1589" y="468"/>
			<point x="1465" y="478" type="qcurve" smooth="yes"/>
			<point x="1341" y="488"/>
			<point x="1265" y="795"/>
		</contour>
		<contour>
			<point x="1323" y="1031" type="qcurve" smooth="yes"/>
			<point x="1289" y="853"/>
			<point x="1374" y="596"/>
			<point x="1480" y="587" type="qcurve" smooth="yes"/>
			<point x="1586" y="578"/>
			<point x="1764" y="795"/>
			<point x="1799" y="982" type="qcurve" smooth="yes"/>
			<point x="1833" y="1154"/>
			<point x="1754" y="1386"/>
			<point x="1636" y="1395" type="qcurve" smooth="yes"/>
			<point x="1508" y="1405"/>
			<point x="1355" y="1209"/>
		</contour>
	</outline>
</glyph>
<glyph name="approxequal" format="2">
	<unicode hex="2248"/>
	<advance width="1024"/>
	<outline>
		<contour>
			<point x="38" y="751" type="line"/>
			<point x="100" y="844"/>
			<point x="280" y="956"/>
			<point x="368" y="956" type="qcurve"/>
			<point x="661" y="674" type="line"/>
			<point x="751" y="738"/>
			<point x="858" y="889"/>
			<point x="896" y="963" type="qcurve"/>
			<point x="986" y="911" type="line"/>
			<point x="936" y="807"/>
			<point x="792" y="666"/>
			<point x="660" y="666" type="qcurve"/>
			<point x="367" y="947" type="line"/>
			<point x="263" y="883"/>
			<point x="149" y="762"/>
			<point x="106" y="687" type="qcurve"/>
		</contour>
		<contour>
			<point x="38" y="371" type="line"/>
			<point x="100" y="464"/>
			<point x="280" y="576"/>
			<point x="368" y="576" type="qcurve"/>
			<point x="661" y="295" type="line"/>
			<point x="755" y="350"/>
			<point x="863" y="510"/>
			<point x="896" y="583" type="qcurve"/>
			<point x="986" y="531" type="line"/>
			<point x="936" y="427"/>
			<point x="792" y="286"/>
			<point x="660" y="286" type="qcurve"/>
			<point x="367" y="567" type="line"/>
			<point x="263" y="503"/>
			<point x="149" y="382"/>
			<point x="106" y="307" type="qcurve"/>
		</contour>
	</outline>
</glyph>
<glyph name="lessequal" format="2">
  <advance width="1024"/>
  <unicode hex="2264"/>
  <outline>
    <contour>
      <point x="70" y="46" type="line"/>
      <point x="70" y="198" type="line"/>
      <point x="874" y="198" type="line"/>
      <point x="874" y="46" type="line"/>
    </contour>
    <contour>
      <point x="193" y="700" type="qcurve"/>
      <point x="193" y="700"/>
      <point x="722" y="1037"/>
      <point x="797" y="1086" type="qcurve" smooth="yes"/>
      <point x="872" y="1134"/>
      <point x="938" y="1028"/>
      <point x="867" y="989" type="qcurve" smooth="yes"/>
      <point x="710" y="902"/>
      <point x="379" y="749"/>
      <point x="220" y="698" type="qcurve"/>
      <point x="376" y="654"/>
      <point x="626" y="489"/>
      <point x="764" y="393" type="qcurve"/>
      <point x="813" y="340"/>
      <point x="716" y="250"/>
      <point x="658" y="298" type="qcurve" smooth="yes"/>
      <point x="600" y="346"/>
      <point x="193" y="700"/>
    </contour>
  </outline>
</glyph>
<glyph name="leftanglebracket" format="2">
	<unicode hex="27E8"/>
	<advance width="983"/>
	<outline>
		<contour>
			<point x="1056" y="1518" type="line"/>
			<point x="1123" y="1440" type="line"/>
			<point x="55" y="710" type="line"/>
			<point x="840" y="-83" type="line"/>
			<point x="720" y="-177" type="line"/>
			<point x="34" y="706" type="line"/>
			<point x="34" y="715" type="line"/>
		</contour>
	</outline>
</glyph>
<glyph name="eight.lc" format="2">
  <advance width="1015"/>
  <outline>
    <contour>
      <point x="440" y="761" type="qcurve" smooth="yes"/>
      <point x="652" y="845"/>
      <point x="789" y="1017"/>
      <point x="784" y="1098" type="qcurve" smooth="yes"/>
      <point x="780" y="1166"/>
      <point x="689" y="1251"/>
      <point x="605" y="1251" type="qcurve" smooth="yes"/>
      <point x="471" y="1251"/>
      <point x="292" y="1131"/>
      <point x="294" y="1038" type="qcurve" smooth="yes"/>
      <point x="296" y="942"/>
      <point x="383" y="793"/>
      <point x="497" y="725" type="qcurve" smooth="yes"/>
      <point x="606" y="660"/>
      <point x="777" y="498"/>
      <point x="780" y="361" type="qcurve"/>
      <point x="785" y="218"/>
      <point x="545" y="-21"/>
      <point x="371" y="-21" type="qcurve" smooth="yes"/>
      <point x="185" y="-21"/>
      <point x="-36" y="143"/>
      <point x="-40" y="279" type="qcurve" smooth="yes"/>
      <point x="-44" y="431"/>
      <point x="197" y="665"/>
    </contour>
    <contour>
      <point x="529" y="701" type="qcurve" smooth="yes"/>
      <point x="310" y="614"/>
      <point x="119" y="419"/>
      <point x="123" y="300" type="qcurve" smooth="yes"/>
      <point x="125" y="211"/>
      <point x="249" y="88"/>
      <point x="382" y="88" type="qcurve" smooth="yes"/>
      <point x="539" y="88"/>
      <point x="778" y="235"/>
      <point x="775" y="361" type="qcurve"/>
      <point x="771" y="487"/>
      <point x="605" y="655"/>
      <point x="493" y="722" type="qcurve" smooth="yes"/>
      <point x="381" y="789"/>
      <point x="291" y="936"/>
      <point x="288" y="1038" type="qcurve" smooth="yes"/>
      <point x="285" y="1152"/>
      <point x="479" y="1357"/>
      <point x="626" y="1357" type="qcurve" smooth="yes"/>
      <point x="760" y="1357"/>
      <point x="937" y="1230"/>
      <point x="940" y="1122" type="qcurve" smooth="yes"/>
      <point x="943" y="1008"/>
      <point x="772" y="797"/>
    </contour>
  </outline>
</glyph>
<glyph name="eight.tab" format="2">
  <advance width="1000"/>
  <outline>
    <contour>
      <point x="477" y="860" type="line"/>
      <point x="674" y="969"/>
      <point x="818" y="1145"/>
      <point x="818" y="1255" type="qcurve" smooth="yes"/>
      <point x="818" y="1331"/>
      <point x="703" y="1405"/>
      <point x="593" y="1405" type="qcurve" smooth="yes"/>
      <point x="452" y="1405"/>
      <point x="280" y="1257"/>
      <point x="280" y="1173" type="qcurve" smooth="yes"/>
      <point x="280" y="1052"/>
      <point x="442" y="883"/>
      <point x="549" y="806" type="qcurve" smooth="yes"/>
      <point x="657" y="729"/>
      <point x="830" y="537"/>
      <point x="830" y="413" type="qcurve" smooth="yes"/>
      <point x="830" y="237"/>
      <point x="570" y="-29"/>
      <point x="343" y="-29" type="qcurve" smooth="yes"/>
      <point x="187" y="-29"/>
      <point x="-19" y="155"/>
      <point x="-19" y="308" type="qcurve" smooth="yes"/>
      <point x="-19" y="476"/>
      <point x="251" y="737"/>
      <point x="476" y="859" type="qcurve"/>
    </contour>
    <contour>
      <point x="546" y="801" type="line"/>
      <point x="337" y="690"/>
      <point x="134" y="449"/>
      <point x="134" y="317" type="qcurve" smooth="yes"/>
      <point x="134" y="217"/>
      <point x="265" y="80"/>
      <point x="398" y="80" type="qcurve" smooth="yes"/>
      <point x="545" y="80"/>
      <point x="821" y="265"/>
      <point x="820" y="398" type="qcurve" smooth="yes"/>
      <point x="819" y="531"/>
      <point x="651" y="724"/>
      <point x="543" y="801" type="qcurve" smooth="yes"/>
      <point x="435" y="878"/>
      <point x="272" y="1049"/>
      <point x="272" y="1168" type="qcurve" smooth="yes"/>
      <point x="272" y="1315"/>
      <point x="497" y="1517"/>
      <point x="638" y="1517" type="qcurve" smooth="yes"/>
      <point x="772" y="1517"/>
      <point x="965" y="1388"/>
      <point x="965" y="1282" type="qcurve" smooth="yes"/>
      <point x="965" y="1143"/>
      <point x="769" y="922"/>
      <point x="550" y="803" type="qcurve"/>
    </contour>
  </outline>
</glyph>
<glyph name="eightsuperior" format="2">
  <advance width="748"/>
  <outline>
    <contour>
      <point x="454" y="1181" type="line" smooth="yes"/>
      <point x="563" y="1228"/>
      <point x="639" y="1290"/>
      <point x="637" y="1348" type="qcurve" smooth="yes"/>
      <point x="635" y="1393"/>
      <point x="572" y="1435"/>
      <point x="508" y="1435" type="qcurve" smooth="yes"/>
      <point x="424" y="1435"/>
      <point x="301" y="1376"/>
      <point x="302" y="1308" type="qcurve" smooth="yes"/>
      <point x="303" y="1252"/>
      <point x="394" y="1167"/>
      <point x="469" y="1125" type="qcurve" smooth="yes"/>
      <point x="544" y="1083"/>
      <point x="659" y="975"/>
      <point x="662" y="881" type="qcurve" smooth="yes"/>
      <point x="665" y="794"/>
      <point x="502" y="642"/>
      <point x="375" y="642" type="qcurve" smooth="yes"/>
      <point x="249" y="642"/>
      <point x="93" y="751"/>
      <point x="90" y="842" type="qcurve" smooth="yes"/>
      <point x="86" y="942"/>
      <point x="252" y="1093"/>
      <point x="383" y="1150" type="qcurve" smooth="yes"/>
    </contour>
    <contour>
      <point x="443" y="1101" type="line" smooth="yes"/>
      <point x="328" y="1050"/>
      <point x="214" y="931"/>
      <point x="217" y="852" type="qcurve" smooth="yes"/>
      <point x="219" y="793"/>
      <point x="293" y="734"/>
      <point x="383" y="734" type="qcurve" smooth="yes"/>
      <point x="483" y="734"/>
      <point x="658" y="803"/>
      <point x="654" y="896" type="qcurve" smooth="yes"/>
      <point x="650" y="970"/>
      <point x="534" y="1082"/>
      <point x="453" y="1127" type="qcurve" smooth="yes"/>
      <point x="401" y="1156"/>
      <point x="295" y="1244"/>
      <point x="295" y="1308" type="qcurve" smooth="yes"/>
      <point x="295" y="1389"/>
      <point x="419" y="1527"/>
      <point x="549" y="1527" type="qcurve" smooth="yes"/>
      <point x="639" y="1527"/>
      <point x="761" y="1440"/>
      <point x="763" y="1377" type="qcurve" smooth="yes"/>
      <point x="766" y="1301"/>
      <point x="649" y="1192"/>
      <point x="520" y="1135" type="qcurve" smooth="yes"/>
    </contour>
  </outline>
</glyph>
<glyph name="five.lc" format="2">
	<advance width="725"/>
	<outline>
		<contour>
			<point x="554" y="109" type="qcurve" smooth="yes"/>
			<point x="559" y="259"/>
			<point x="373" y="403"/>
			<point x="201" y="390" type="qcurve" smooth="yes"/>
			<point x="73" y="380" type="line"/>
			<point x="41" y="450" type="line"/>
			<point x="218" y="1062" type="line"/>
			<point x="250" y="1095" type="line"/>
			<point x="677" y="1095" type="line"/>
			<point x="676" y="1088" type="line"/>
			<point x="338" y="1088" type="line"/>
			<point x="327" y="1077" type="line"/>
			<point x="274" y="887"/>
			<point x="170" y="515"/>
			<point x="132" y="470" type="qcurve"/>
			<point x="224" y="511" type="line"/>
			<point x="357" y="508"/>
			<point x="563" y="318"/>
			<point x="563" y="146" type="qcurve" smooth="yes"/>
			<point x="563" y="-96"/>
			<point x="196" y="-386"/>
			<point x="-16" y="-386" type="qcurve" smooth="yes"/>
			<point x="-63" y="-386"/>
			<point x="-144" y="-379"/>
			<point x="-179" y="-371" type="qcurve"/>
			<point x="-143" y="-277" type="line"/>
			<point x="-104" y="-282"/>
			<point x="-73" y="-285"/>
			<point x="-32" y="-285" type="qcurve" smooth="yes"/>
			<point x="223" y="-285"/>
			<point x="548" y="-80"/>
		</contour>
	</outline>
</glyph>
<glyph name="five.tab" format="2">
	<advance width="1000"/>
	<outline>
		<contour>
			<point x="-7" y="202" type="qcurve" smooth="yes"/>
			<point x="-7" y="248"/>
			<point x="43" y="348"/>
			<point x="64" y="365" type="qcurve"/>
			<point x="66" y="364" type="line"/>
			<point x="58" y="351" type="line" smooth="yes"/>
			<point x="-29" y="212"/>
			<point x="145" y="80"/>
			<point x="308" y="80" type="qcurve" smooth="yes"/>
			<point x="493" y="80"/>
			<point x="755" y="305"/>
			<point x="755" y="548" type="qcurve" smooth="yes"/>
			<point x="755" y="733"/>
			<point x="474" y="868"/>
			<point x="303" y="815" type="qcurve" smooth="yes"/>
			<point x="190" y="780" type="line"/>
			<point x="158" y="850" type="line"/>
			<point x="344" y="1498" type="line"/>
			<point x="347" y="1500" type="line"/>
			<point x="866" y="1500" type="line"/>
			<point x="864" y="1493" type="line"/>
			<point x="452" y="1493" type="line"/>
			<point x="449" y="1489" type="line"/>
			<point x="396" y="1299"/>
			<point x="293" y="918"/>
			<point x="248" y="869" type="qcurve"/>
			<point x="399" y="968" type="line"/>
			<point x="548" y="974"/>
			<point x="762" y="769"/>
			<point x="762" y="566" type="qcurve" smooth="yes"/>
			<point x="762" y="278"/>
			<point x="479" y="-24"/>
			<point x="296" y="-24" type="qcurve" smooth="yes"/>
			<point x="161" y="-24"/>
			<point x="-7" y="107"/>
		</contour>
	</outline>
</glyph>
<glyph name="fivesuperior" format="2">
  <advance width="579"/>
  <outline>
    <contour>
      <point x="45" y="815" type="qcurve" smooth="yes"/>
      <point x="45" y="876"/>
      <point x="143" y="952"/>
      <point x="186" y="963" type="qcurve"/>
      <point x="236" y="892" type="line"/>
      <point x="236" y="883" type="line"/>
      <point x="148" y="882"/>
      <point x="62" y="839"/>
      <point x="62" y="810" type="qcurve" smooth="yes"/>
      <point x="62" y="774"/>
      <point x="195" y="727"/>
      <point x="291" y="727" type="qcurve" smooth="yes"/>
      <point x="397" y="727"/>
      <point x="549" y="828"/>
      <point x="549" y="935" type="qcurve" smooth="yes"/>
      <point x="549" y="1032"/>
      <point x="418" y="1111"/>
      <point x="331" y="1087" type="qcurve" smooth="yes"/>
      <point x="255" y="1066" type="line"/>
      <point x="211" y="1128" type="line"/>
      <point x="320" y="1481" type="line"/>
      <point x="342" y="1500" type="line"/>
      <point x="614" y="1500" type="line"/>
      <point x="612" y="1492" type="line"/>
      <point x="416" y="1492" type="line"/>
      <point x="408" y="1486" type="line"/>
      <point x="393" y="1430"/>
      <point x="324" y="1180"/>
      <point x="313" y="1157" type="qcurve"/>
      <point x="398" y="1189" type="line"/>
      <point x="430" y="1189"/>
      <point x="555" y="1073"/>
      <point x="555" y="953" type="qcurve" smooth="yes"/>
      <point x="555" y="793"/>
      <point x="383" y="640"/>
      <point x="302" y="640" type="qcurve" smooth="yes"/>
      <point x="190" y="640"/>
      <point x="45" y="742"/>
    </contour>
  </outline>
</glyph>
<glyph name="four.lc" format="2">
	<advance width="1078"/>
	<outline>
		<contour>
			<point x="-41" y="87" type="line"/>
			<point x="-41" y="172" type="line"/>
			<point x="792" y="1108" type="line"/>
			<point x="801" y="1103" type="line"/>
			<point x="801" y="1063" type="line"/>
			<point x="617" y="152" type="line"/>
			<point x="610" y="119" type="line"/>
			<point x="573" y="-212" type="line"/>
			<point x="573" y="-370" type="line"/>
			<point x="498" y="-394" type="line"/>
			<point x="468" y="-329" type="line"/>
			<point x="601" y="115" type="line"/>
			<point x="609" y="152" type="line"/>
			<point x="766" y="932" type="line"/>
			<point x="108" y="192" type="line"/>
			<point x="112" y="182" type="line"/>
			<point x="611" y="182" type="line"/>
			<point x="951" y="182" type="line"/>
			<point x="934" y="86" type="line"/>
			<point x="600" y="72" type="line"/>
		</contour>
	</outline>
</glyph>
<glyph name="four.tab" format="2">
	<advance width="1000"/>
	<outline>
		<contour>
			<point x="-13" y="455" type="line"/>
			<point x="-13" y="540" type="line"/>
			<point x="836" y="1541" type="line"/>
			<point x="849" y="1533" type="line"/>
			<point x="842" y="1494" type="line"/>
			<point x="649" y="520" type="line"/>
			<point x="640" y="487" type="line"/>
			<point x="595" y="268" type="line"/>
			<point x="610" y="0" type="line"/>
			<point x="573" y="-12" type="line"/>
			<point x="543" y="57" type="line"/>
			<point x="632" y="483" type="line"/>
			<point x="642" y="520" type="line"/>
			<point x="813" y="1386" type="line"/>
			<point x="142" y="560" type="line"/>
			<point x="146" y="550" type="line"/>
			<point x="633" y="550" type="line"/>
			<point x="943" y="550" type="line"/>
			<point x="926" y="454" type="line"/>
			<point x="622" y="440" type="line"/>
		</contour>
	</outline>
</glyph>
<glyph name="gravecomb.case" format="2">
	<outline>
		<contour>
			<point x="-11" y="1836" type="line" smooth="yes"/>
			<point x="-43" y="1862"/>
			<point x="-90" y="1913"/>
			<point x="-90" y="1947" type="qcurve" smooth="yes"/>
			<point x="-90" y="1983"/>
			<point x="-28" y="2047"/>
			<point x="12" y="2047" type="qcurve" smooth="yes"/>
			<point x="50" y="2047"/>
			<point x="118" y="1993"/>
			<point x="142" y="1959" type="qcurve" smooth="yes"/>
			<point x="321" y="1704" type="line"/>
			<point x="247" y="1632" type="line"/>
		</contour>
	</outline>
	<anchor name="_top" x="98" y="1500"/>
	<anchor name="top" x="211" y="2086"/>
</glyph>
<glyph name="nine.tab" format="2">
	<advance width="1000"/>
	<outline>
		<contour>
			<point x="188" y="-67" type="qcurve"/>
			<point x="158" y="35" type="line"/>
			<point x="396" y="125"/>
			<point x="834" y="694"/>
			<point x="845" y="1020" type="qcurve" smooth="yes"/>
			<point x="850" y="1197"/>
			<point x="722" y="1399"/>
			<point x="566" y="1400" type="qcurve" smooth="yes"/>
			<point x="417" y="1400"/>
			<point x="188" y="1179"/>
			<point x="182" y="964" type="qcurve" smooth="yes"/>
			<point x="179" y="850"/>
			<point x="331" y="711"/>
			<point x="434" y="711" type="qcurve" smooth="yes"/>
			<point x="487" y="711"/>
			<point x="586" y="741"/>
			<point x="627" y="768" type="qcurve"/>
			<point x="641" y="700" type="line"/>
			<point x="603" y="662"/>
			<point x="483" y="598"/>
			<point x="396" y="598" type="qcurve" smooth="yes"/>
			<point x="306" y="598"/>
			<point x="167" y="806"/>
			<point x="173" y="965" type="qcurve" smooth="yes"/>
			<point x="181" y="1191"/>
			<point x="420" y="1511"/>
			<point x="592" y="1511" type="qcurve" smooth="yes"/>
			<point x="750" y="1510"/>
			<point x="860" y="1227"/>
			<point x="852" y="1012" type="qcurve" smooth="yes"/>
			<point x="840" y="677"/>
			<point x="522" y="80"/>
		</contour>
	</outline>
</glyph>
<glyph name="ninesuperior" format="2">
	<advance width="503"/>
	<outline>
		<contour>
			<point x="138" y="640" type="qcurve"/>
			<point x="109" y="721" type="line"/>
			<point x="285" y="802"/>
			<point x="513" y="1020"/>
			<point x="519" y="1248" type="qcurve" smooth="yes"/>
			<point x="521" y="1340"/>
			<point x="456" y="1448"/>
			<point x="378" y="1449" type="qcurve" smooth="yes"/>
			<point x="283" y="1449"/>
			<point x="185" y="1322"/>
			<point x="182" y="1234" type="qcurve" smooth="yes"/>
			<point x="180" y="1167"/>
			<point x="239" y="1095"/>
			<point x="303" y="1094" type="qcurve" smooth="yes"/>
			<point x="339" y="1094"/>
			<point x="385" y="1108"/>
			<point x="413" y="1124" type="qcurve"/>
			<point x="432" y="1068" type="line"/>
			<point x="404" y="1045"/>
			<point x="323" y="1007"/>
			<point x="281" y="1007" type="qcurve" smooth="yes"/>
			<point x="231" y="1008"/>
			<point x="169" y="1132"/>
			<point x="174" y="1227" type="qcurve" smooth="yes"/>
			<point x="180" y="1361"/>
			<point x="282" y="1530"/>
			<point x="391" y="1530" type="qcurve" smooth="yes"/>
			<point x="464" y="1529"/>
			<point x="527" y="1361"/>
			<point x="524" y="1233" type="qcurve" smooth="yes"/>
			<point x="518" y="998"/>
			<point x="317" y="750"/>
		</contour>
	</outline>
</glyph>
<glyph name="one.lc" format="2">
  <advance width="661"/>
  <outline>
    <contour>
      <point x="74" y="-1" type="line"/>
      <point x="96" y="61"/>
      <point x="303" y="261"/>
      <point x="320" y="368" type="qcurve" smooth="yes"/>
      <point x="375" y="705" type="line"/>
      <point x="417" y="978" type="line"/>
      <point x="67" y="785" type="line"/>
      <point x="29" y="887" type="line"/>
      <point x="426" y="1114" type="line"/>
      <point x="484" y="1069" type="line"/>
      <point x="453" y="1024"/>
      <point x="410" y="877"/>
      <point x="406" y="854" type="qcurve" smooth="yes"/>
      <point x="347" y="489" type="line"/>
      <point x="294" y="124" type="line"/>
      <point x="145" y="-34" type="line"/>
    </contour>
  </outline>
</glyph>
<glyph name="one.tab" format="2">
  <advance width="874"/>
  <outline>
    <contour>
      <point x="293" y="-1" type="line"/>
      <point x="340" y="51"/>
      <point x="410" y="169"/>
      <point x="428" y="276" type="qcurve" smooth="yes"/>
      <point x="559" y="1053" type="line"/>
      <point x="604" y="1353" type="line"/>
      <point x="175" y="1125" type="line"/>
      <point x="136" y="1232" type="line"/>
      <point x="717" y="1546" type="line"/>
      <point x="733" y="1534" type="line"/>
      <point x="652" y="1431"/>
      <point x="617" y="1346"/>
      <point x="608" y="1294" type="qcurve" smooth="yes"/>
      <point x="509" y="719" type="line"/>
      <point x="394" y="-3" type="line"/>
      <point x="364" y="-34" type="line"/>
    </contour>
  </outline>
</glyph>
<glyph name="seven.lc" format="2">
	<advance width="913"/>
	<outline>
		<contour>
			<point x="47" y="916" type="line"/>
			<point x="110" y="1100" type="line"/>
			<point x="953" y="1100" type="line"/>
			<point x="972" y="1052" type="line"/>
			<point x="678" y="755"/>
			<point x="196" y="22"/>
			<point x="54" y="-391" type="qcurve"/>
			<point x="46" y="-394" type="line"/>
			<point x="43" y="-389" type="line"/>
			<point x="198" y="26"/>
			<point x="675" y="894"/>
			<point x="906" y="1078" type="qcurve"/>
			<point x="893" y="1092" type="line"/>
			<point x="249" y="1092" type="line"/>
			<point x="134" y="916" type="line"/>
		</contour>
	</outline>
</glyph>
<glyph name="seven.tab" format="2">
	<advance width="1000"/>
	<outline>
		<contour>
			<point x="145" y="1212" type="line"/>
			<point x="264" y="1500" type="line"/>
			<point x="1095" y="1500" type="line"/>
			<point x="1112" y="1452" type="line"/>
			<point x="846" y="1061"/>
			<point x="395" y="337"/>
			<point x="219" y="-30" type="qcurve"/>
			<point x="213" y="-32" type="line"/>
			<point x="210" y="-27" type="line"/>
			<point x="385" y="362"/>
			<point x="746" y="1078"/>
			<point x="995" y="1479" type="qcurve"/>
			<point x="983" y="1493" type="line"/>
			<point x="443" y="1493" type="line"/>
			<point x="247" y="1212" type="line"/>
		</contour>
	</outline>
</glyph>
<glyph name="sevensuperior" format="2">
  <advance width="630"/>
  <outline>
    <contour>
      <point x="88" y="1365" type="line"/>
      <point x="149" y="1500" type="line"/>
      <point x="691" y="1500" type="line"/>
      <point x="735" y="1429" type="line"/>
      <point x="574" y="1237"/>
      <point x="250" y="807"/>
      <point x="180" y="647" type="qcurve"/>
      <point x="169" y="641" type="line"/>
      <point x="169" y="643" type="line"/>
      <point x="250" y="823"/>
      <point x="460" y="1197"/>
      <point x="689" y="1483" type="qcurve"/>
      <point x="685" y="1494" type="line"/>
      <point x="274" y="1492" type="line"/>
      <point x="185" y="1365" type="line"/>
    </contour>
  </outline>
</glyph>
<glyph name="six.lc" format="2">
	<advance width="805"/>
	<outline>
		<contour>
			<point x="23.7903225806" y="402" type="qcurve" smooth="yes"/>
			<point x="36.7903225806" y="696"/>
			<point x="279.7903225806" y="1205"/>
			<point x="631.7903225806" y="1364" type="qcurve"/>
			<point x="663.7903225806" y="1275" type="line"/>
			<point x="331.7903225806" y="1138"/>
			<point x="37.7903225806" y="682"/>
			<point x="31.7903225806" y="383" type="qcurve" smooth="yes"/>
			<point x="29.7903225806" y="247"/>
			<point x="138.7903225806" y="85"/>
			<point x="280.7903225806" y="88" type="qcurve" smooth="yes"/>
			<point x="419.7903225806" y="90"/>
			<point x="624.7903225806" y="278"/>
			<point x="626.7903225806" y="446" type="qcurve" smooth="yes"/>
			<point x="626.7903225806" y="542"/>
			<point x="513.7903225806" y="652"/>
			<point x="415.7903225806" y="652" type="qcurve" smooth="yes"/>
			<point x="362.7903225806" y="652"/>
			<point x="258.7903225806" y="625"/>
			<point x="217.7903225806" y="602" type="qcurve"/>
			<point x="204.7903225806" y="669" type="line"/>
			<point x="238.7903225806" y="709"/>
			<point x="340.7903225806" y="762"/>
			<point x="427.7903225806" y="762" type="qcurve" smooth="yes"/>
			<point x="522.7903225806" y="762"/>
			<point x="644.7903225806" y="597"/>
			<point x="638.7903225806" y="445" type="qcurve" smooth="yes"/>
			<point x="629.7903225806" y="245"/>
			<point x="428.7903225806" y="-21"/>
			<point x="277.7903225806" y="-21" type="qcurve" smooth="yes"/>
			<point x="126.7903225806" y="-20"/>
			<point x="16.7903225806" y="218"/>
		</contour>
	</outline>
</glyph>
<glyph name="six.tab" format="2">
  <advance width="1000"/>
  <outline>
    <contour>
      <point x="133" y="472" type="qcurve" smooth="yes"/>
      <point x="145" y="807"/>
      <point x="473" y="1404"/>
      <point x="807" y="1551" type="qcurve"/>
      <point x="837" y="1449" type="line"/>
      <point x="599" y="1359"/>
      <point x="151" y="790"/>
      <point x="140" y="464" type="qcurve" smooth="yes"/>
      <point x="135" y="287"/>
      <point x="273" y="85"/>
      <point x="429" y="84" type="qcurve" smooth="yes"/>
      <point x="578" y="84"/>
      <point x="787" y="305"/>
      <point x="793" y="520" type="qcurve" smooth="yes"/>
      <point x="796" y="634"/>
      <point x="655" y="773"/>
      <point x="552" y="773" type="qcurve" smooth="yes"/>
      <point x="499" y="773"/>
      <point x="400" y="743"/>
      <point x="359" y="716" type="qcurve"/>
      <point x="345" y="784" type="line"/>
      <point x="383" y="822"/>
      <point x="503" y="886"/>
      <point x="590" y="886" type="qcurve" smooth="yes"/>
      <point x="680" y="886"/>
      <point x="808" y="678"/>
      <point x="802" y="519" type="qcurve" smooth="yes"/>
      <point x="794" y="293"/>
      <point x="575" y="-27"/>
      <point x="403" y="-27" type="qcurve" smooth="yes"/>
      <point x="245" y="-26"/>
      <point x="125" y="257"/>
    </contour>
  </outline>
</glyph>
<glyph name="sixsuperior" format="2">
  <advance width="514"/>
  <outline>
    <contour>
      <point x="109" y="928" type="qcurve" smooth="yes"/>
      <point x="115" y="1163"/>
      <point x="277" y="1423"/>
      <point x="495" y="1557" type="qcurve"/>
      <point x="524" y="1476" type="line"/>
      <point x="351" y="1378"/>
      <point x="120" y="1141"/>
      <point x="114" y="913" type="qcurve" smooth="yes"/>
      <point x="112" y="821"/>
      <point x="177" y="723"/>
      <point x="255" y="722" type="qcurve" smooth="yes"/>
      <point x="350" y="722"/>
      <point x="448" y="859"/>
      <point x="451" y="947" type="qcurve" smooth="yes"/>
      <point x="453" y="1014"/>
      <point x="394" y="1096"/>
      <point x="330" y="1097" type="qcurve" smooth="yes"/>
      <point x="294" y="1097"/>
      <point x="248" y="1083"/>
      <point x="220" y="1067" type="qcurve"/>
      <point x="201" y="1123" type="line"/>
      <point x="221" y="1143"/>
      <point x="297" y="1184"/>
      <point x="338" y="1184" type="qcurve" smooth="yes"/>
      <point x="402" y="1183"/>
      <point x="464" y="1072"/>
      <point x="459" y="954" type="qcurve" smooth="yes"/>
      <point x="453" y="820"/>
      <point x="321" y="641"/>
      <point x="242" y="641" type="qcurve" smooth="yes"/>
      <point x="169" y="641"/>
      <point x="106" y="800"/>
    </contour>
  </outline>
</glyph>
<glyph name="three.lc" format="2">
	<advance width="799"/>
	<outline>
		<contour>
			<point x="-104" y="-277" type="line"/>
			<point x="-65" y="-282"/>
			<point x="-34" y="-285"/>
			<point x="7" y="-285" type="qcurve" smooth="yes"/>
			<point x="262" y="-285"/>
			<point x="585" y="-75"/>
			<point x="585" y="114" type="qcurve" smooth="yes"/>
			<point x="585" y="249"/>
			<point x="413" y="387"/>
			<point x="251" y="404" type="qcurve" smooth="yes"/>
			<point x="176" y="412" type="line"/>
			<point x="184" y="503" type="line"/>
			<point x="234" y="507" type="line" smooth="yes"/>
			<point x="400" y="520"/>
			<point x="631" y="664"/>
			<point x="631" y="802" type="qcurve" smooth="yes"/>
			<point x="631" y="895"/>
			<point x="515" y="991"/>
			<point x="416" y="991" type="qcurve" smooth="yes"/>
			<point x="307" y="991"/>
			<point x="138" y="901"/>
			<point x="80" y="838" type="qcurve"/>
			<point x="14" y="903" type="line"/>
			<point x="91" y="992"/>
			<point x="335" y="1119"/>
			<point x="446" y="1119" type="qcurve" smooth="yes"/>
			<point x="532" y="1119"/>
			<point x="643" y="972"/>
			<point x="640" y="805" type="qcurve" smooth="yes"/>
			<point x="637" y="682"/>
			<point x="512" y="505"/>
			<point x="425" y="469" type="qcurve"/>
			<point x="424" y="463" type="line"/>
			<point x="520" y="433"/>
			<point x="593" y="273"/>
			<point x="594" y="125" type="qcurve" smooth="yes"/>
			<point x="596" y="-98"/>
			<point x="245" y="-386"/>
			<point x="23" y="-386" type="qcurve" smooth="yes"/>
			<point x="-24" y="-386"/>
			<point x="-105" y="-379"/>
			<point x="-140" y="-371" type="qcurve"/>
		</contour>
	</outline>
</glyph>
<glyph name="three.tab" format="2">
  <advance width="874"/>
  <outline>
    <contour>
      <point x="-34" y="241" type="qcurve" smooth="yes"/>
      <point x="-34" y="312"/>
      <point x="-29" y="339"/>
      <point x="-24" y="350" type="qcurve"/>
      <point x="-20" y="345" type="line"/>
      <point x="-23" y="338"/>
      <point x="-27" y="308"/>
      <point x="-27" y="296" type="qcurve" smooth="yes"/>
      <point x="-27" y="209"/>
      <point x="142" y="69"/>
      <point x="295" y="69" type="qcurve" smooth="yes"/>
      <point x="451" y="69"/>
      <point x="733" y="286"/>
      <point x="734" y="463" type="qcurve"/>
      <point x="733" y="619"/>
      <point x="504" y="774"/>
      <point x="324" y="789" type="qcurve" smooth="yes"/>
      <point x="254" y="795" type="line"/>
      <point x="262" y="886" type="line"/>
      <point x="312" y="890" type="line" smooth="yes"/>
      <point x="478" y="903"/>
      <point x="787" y="1057"/>
      <point x="787" y="1222" type="qcurve" smooth="yes"/>
      <point x="787" y="1337"/>
      <point x="621" y="1431"/>
      <point x="521" y="1431" type="qcurve" smooth="yes"/>
      <point x="413" y="1431"/>
      <point x="239" y="1309"/>
      <point x="181" y="1251" type="qcurve"/>
      <point x="115" y="1316" type="line"/>
      <point x="192" y="1405"/>
      <point x="432" y="1531"/>
      <point x="534" y="1531" type="qcurve" smooth="yes"/>
      <point x="663" y="1531"/>
      <point x="795" y="1357"/>
      <point x="795" y="1228" type="qcurve" smooth="yes"/>
      <point x="795" y="1056"/>
      <point x="485" y="874"/>
      <point x="310" y="848" type="qcurve"/>
      <point x="309" y="842" type="line"/>
      <point x="478" y="837"/>
      <point x="741" y="659"/>
      <point x="741" y="468" type="qcurve" smooth="yes"/>
      <point x="741" y="225"/>
      <point x="463" y="-33"/>
      <point x="278" y="-33" type="qcurve" smooth="yes"/>
      <point x="141" y="-33"/>
      <point x="-34" y="138"/>
    </contour>
  </outline>
</glyph>
<glyph name="two.lc" format="2">
  <advance width="785"/>
  <outline>
    <contour>
      <point x="-120" y="6" type="qcurve"/>
      <point x="-163" y="82" type="line"/>
      <point x="-125" y="103"/>
      <point x="-5" y="181"/>
      <point x="33" y="205" type="qcurve" smooth="yes"/>
      <point x="445" y="463"/>
      <point x="672" y="725"/>
      <point x="666" y="843" type="qcurve" smooth="yes"/>
      <point x="662" y="915"/>
      <point x="551" y="993"/>
      <point x="449" y="993" type="qcurve"/>
      <point x="342" y="993"/>
      <point x="174" y="911"/>
      <point x="100" y="836" type="qcurve"/>
      <point x="20" y="904" type="line"/>
      <point x="106" y="999"/>
      <point x="338" y="1120"/>
      <point x="461" y="1120" type="qcurve" smooth="yes"/>
      <point x="548" y="1120"/>
      <point x="669" y="985"/>
      <point x="673" y="847" type="qcurve" smooth="yes"/>
      <point x="679" y="652"/>
      <point x="417" y="327"/>
      <point x="-107" y="30" type="qcurve"/>
      <point x="-107" y="28" type="line"/>
      <point x="-95" y="29"/>
      <point x="-16" y="57"/>
      <point x="-3" y="60" type="qcurve" smooth="yes"/>
      <point x="88" y="84"/>
      <point x="282" y="57"/>
      <point x="400" y="16" type="qcurve"/>
      <point x="497" y="169" type="line"/>
      <point x="581" y="155" type="line"/>
      <point x="511" y="-30" type="line"/>
      <point x="404" y="7"/>
      <point x="196" y="68"/>
      <point x="126" y="68" type="qcurve" smooth="yes"/>
      <point x="57" y="68"/>
      <point x="-68" y="32"/>
    </contour>
  </outline>
</glyph>
<glyph name="two.tab" format="2">
	<advance width="1000"/>
	<outline>
		<contour>
			<point x="-67" y="7" type="qcurve"/>
			<point x="-115" y="79" type="line"/>
			<point x="14" y="196" type="line" smooth="yes"/>
			<point x="494" y="631"/>
			<point x="863" y="1004"/>
			<point x="858" y="1199" type="qcurve" smooth="yes"/>
			<point x="855" y="1311"/>
			<point x="667" y="1399"/>
			<point x="553" y="1399" type="qcurve" smooth="yes"/>
			<point x="410" y="1399"/>
			<point x="249" y="1321"/>
			<point x="182" y="1246" type="qcurve"/>
			<point x="105" y="1314" type="line"/>
			<point x="170" y="1389"/>
			<point x="399" y="1531"/>
			<point x="567" y="1531" type="qcurve" smooth="yes"/>
			<point x="679" y="1531"/>
			<point x="866" y="1365"/>
			<point x="866" y="1191" type="qcurve" smooth="yes"/>
			<point x="866" y="952"/>
			<point x="331" y="317"/>
			<point x="18" y="96" type="qcurve"/>
			<point x="34" y="71" type="line"/>
			<point x="55" y="78"/>
			<point x="147" y="87"/>
			<point x="205" y="85" type="qcurve" smooth="yes"/>
			<point x="293" y="82"/>
			<point x="490" y="40"/>
			<point x="613" y="10" type="qcurve"/>
			<point x="741" y="217" type="line"/>
			<point x="825" y="198" type="line"/>
			<point x="740" y="-30" type="line"/>
			<point x="602" y="7"/>
			<point x="312" y="77"/>
			<point x="181" y="75" type="qcurve" smooth="yes"/>
			<point x="111" y="74"/>
			<point x="-14" y="42"/>
		</contour>
	</outline>
</glyph>
<glyph name="zero.lc" format="2">
	<advance width="852"/>
	<outline>
		<contour>
			<point x="37" y="550" type="qcurve" smooth="yes"/>
			<point x="84" y="801"/>
			<point x="312" y="1128"/>
			<point x="469" y="1119" type="qcurve" smooth="yes"/>
			<point x="620" y="1110"/>
			<point x="758" y="811"/>
			<point x="713" y="556" type="qcurve" smooth="yes"/>
			<point x="666" y="291"/>
			<point x="437" y="-27"/>
			<point x="280" y="-17" type="qcurve" smooth="yes"/>
			<point x="123" y="-7"/>
			<point x="-11" y="295"/>
		</contour>
		<contour>
			<point x="49" y="569" type="qcurve" smooth="yes"/>
			<point x="11" y="356"/>
			<point x="138" y="96"/>
			<point x="285" y="91" type="qcurve" smooth="yes"/>
			<point x="444" y="86"/>
			<point x="665" y="315"/>
			<point x="704" y="550" type="qcurve" smooth="yes"/>
			<point x="738" y="757"/>
			<point x="617" y="994"/>
			<point x="468" y="999" type="qcurve" smooth="yes"/>
			<point x="307" y="1004"/>
			<point x="87" y="781"/>
		</contour>
	</outline>
</glyph>
<glyph name="zero.tab" format="2">
  <advance width="1000"/>
  <outline>
    <contour>
      <point x="240" y="756" type="qcurve" smooth="yes"/>
      <point x="299" y="1091"/>
      <point x="509" y="1520"/>
      <point x="645" y="1520" type="qcurve" smooth="yes"/>
      <point x="771" y="1520"/>
      <point x="831" y="1097"/>
      <point x="774" y="754" type="qcurve" smooth="yes"/>
      <point x="710" y="390"/>
      <point x="512" y="-30"/>
      <point x="373" y="-30" type="qcurve" smooth="yes"/>
      <point x="242" y="-30"/>
      <point x="176" y="399"/>
    </contour>
    <contour>
      <point x="248" y="755" type="qcurve" smooth="yes"/>
      <point x="194" y="452"/>
      <point x="262" y="91"/>
      <point x="389" y="91" type="qcurve" smooth="yes"/>
      <point x="528" y="91"/>
      <point x="711" y="455"/>
      <point x="766" y="755" type="qcurve"/>
      <point x="817" y="1035"/>
      <point x="751" y="1398"/>
      <point x="622" y="1398" type="qcurve" smooth="yes"/>
      <point x="481" y="1398"/>
      <point x="303" y="1068"/>
    </contour>
  </outline>
</glyph>
<glyph name="zerosuperior" format="2">
	<advance width="598"/>
	<outline>
		<contour>
			<point x="143" y="1071" type="qcurve" smooth="yes"/>
			<point x="163" y="1253"/>
			<point x="326" y="1522"/>
			<point x="426" y="1522" type="qcurve" smooth="yes"/>
			<point x="502" y="1522"/>
			<point x="593" y="1279"/>
			<point x="563" y="1077" type="qcurve" smooth="yes"/>
			<point x="537" y="904"/>
			<point x="389" y="641"/>
			<point x="292" y="641" type="qcurve" smooth="yes"/>
			<point x="195" y="641"/>
			<point x="122" y="878"/>
		</contour>
		<contour>
			<point x="152" y="1088" type="qcurve" smooth="yes"/>
			<point x="127" y="907"/>
			<point x="208" y="748"/>
			<point x="299" y="748" type="qcurve" smooth="yes"/>
			<point x="397" y="748"/>
			<point x="527" y="919"/>
			<point x="556" y="1077" type="qcurve" smooth="yes"/>
			<point x="584" y="1230"/>
			<point x="504" y="1413"/>
			<point x="411" y="1413" type="qcurve" smooth="yes"/>
			<point x="314" y="1413"/>
			<point x="175" y="1253"/>
		</contour>
	</outline>
</glyph>
